<svg xmlns="http://www.w3.org/2000/svg" viewBox="0 0 220.39 123.38"><defs><style>.cls-1{fill:#efefef;}.cls-1,.cls-3{fill-rule:evenodd;}.cls-2{fill:#d5d5d5;}.cls-3{fill:#aaa;}</style></defs><title>No Car Image</title><g id="Layer_2" data-name="Layer 2"><g id="Layer_1-2" data-name="Layer 1"><polygon id="Path-3" class="cls-1" points="27.33 70.57 15.85 71.26 4.18 70.57 0.33 65.92 4.68 41.29 11.01 35.56 33.46 31.3 40.78 8.75 44.54 2.92 85.38 0.94 121.38 4.11 134.54 6.48 142.55 20.72 203.27 20.13 206.83 34.37 218.01 38.52 219 58.4 216.33 67.5 202.48 68.39 196.94 78.18 185.07 84.12 171.23 80.26 164.31 69.88 98.54 70.27 64.51 69.38 59.47 79.27 45.33 84.12 33.46 79.27 27.33 70.57"/><path class="cls-2" d="M135.18,29.41a1,1,0,0,1-1-.72c-.43-1.29.46-3.26,6.16-8.69a1,1,0,0,1,.69-.28c11.43,0,21.36-.23,31-.44s19.48-.45,30.86-.45a1,1,0,0,1,0,2c-11.35,0-21.25.23-30.82.44s-19.32.45-30.6.45c-5.1,4.89-5.34,6.19-5.34,6.41a1,1,0,0,1-.64,1.23A1,1,0,0,1,135.18,29.41Z"/><path class="cls-2" d="M135.52,29.73a1,1,0,0,1-.07-2c16-1.22,37.28-2.33,65.11-3.36a1,1,0,0,1,.09,2l-65.07,3.36Z"/><path class="cls-2" d="M183,84.92a19.79,19.79,0,1,1,19.79-19.79A19.81,19.81,0,0,1,183,84.92Zm0-37.58a17.79,17.79,0,1,0,17.79,17.79A17.81,17.81,0,0,0,183,47.34Zm1.09,28.78a11,11,0,1,1,10.88-11A11,11,0,0,1,184.09,76.12Zm0-20a9,9,0,1,0,8.88,9A9,9,0,0,0,184.09,56.14ZM45.62,84.82A20.29,20.29,0,1,1,65.91,64.53,20.31,20.31,0,0,1,45.62,84.82Zm0-38.57A18.29,18.29,0,1,0,63.91,64.53,18.3,18.3,0,0,0,45.62,46.25Zm0,29.77A11.36,11.36,0,0,1,34.14,64.53,11.49,11.49,0,1,1,45.62,76Zm0-21a9.49,9.49,0,0,0-9.48,9.48A9.39,9.39,0,0,0,45.62,74a9.49,9.49,0,1,0,0-19Z"/><path class="cls-2" d="M54.4,27.41c1.57-3.62,2.83-9.35,4-17.61a1,1,0,0,1,.91-.86C64,8.58,129,7.44,133.4,7.64c.26.64.77,1.7.94,2-4.18-.2-65.27.81-74.09,1.21-1.16,8-2,12.68-3.63,16.34Zm41.71,1.2a1,1,0,0,0,.73-1.21L92.5,10.17l-2,0L94.9,27.89a1,1,0,0,0,1,.75A1,1,0,0,0,96.11,28.61Zm-62.5,3.46c1.23-1.05,2.48-5,4.58-11.92C39.86,14.65,43,4.41,44.59,4L83.53,2c.07,0,7.51-.19,12.13.29l2.88.3c21.57,2.23,33.21,3.62,34.58,4.11.24,1.16,1.54,4.26,8.2,14.33a1,1,0,0,0,1.38.29A1,1,0,0,0,143,20c-7.75-11.74-7.92-13.57-7.91-13.73a1.13,1.13,0,0,0-.69-1.1,1.55,1.55,0,0,1-.24-.13c-.82-.45-5.67-1.3-35.4-4.37L95.87.34A121.59,121.59,0,0,0,83.45,0l-39,2c-2.65.2-4.62,5.77-8.19,17.54-1.38,4.58-3.11,10.27-4,11a1,1,0,0,0,1.29,1.53ZM146.5,70.78c.06,0,6,0,17.6.1h0a1,1,0,0,0,1-1,1,1,0,0,0-1-1c-11.65-.1-17.56-.1-17.7-.1-13.5,1.08-80.16-.27-81.46-.3A1,1,0,0,0,64,69a1,1,0,0,0,0,1c.11.18.18.29.84.37v.09a1,1,0,0,0,.34-.06c1.27.1,4.06.15,10.48.26,6,.11,15.12.25,24.87.36,7.63.08,16.2.15,24,.15C134.22,71.19,142.63,71.09,146.5,70.78ZM27.68,71.4a1.19,1.19,0,0,0,.45-.93,1,1,0,0,0-1-1,1,1,0,0,0-.81.42c-2.12.76-16.49.51-21.76-.41C1.87,69,1.77,67.17,2.18,62.41c.11-1.32.23-2.7.23-4.13l1.28-8.85c1.47-11.19,6.37-12.29,13.16-13.8l1.76-.4a64.17,64.17,0,0,1,13.9-2.64,12,12,0,0,0,2.36-.31c15-3.4,33.23-3.63,33.4-3.64H96.53l40.95,1h0a1,1,0,0,0,1-1,1,1,0,0,0-1-1l-41-1H68.26c-.18,0-18.58.24-33.91,3.71a13.27,13.27,0,0,1-2,.25A65.56,65.56,0,0,0,18.1,33.3l-1.69.38c-7,1.56-13.06,2.91-14.7,15.48L.43,58.06a.78.78,0,0,0,0,.14c0,1.38-.11,2.73-.22,4-.35,4.12-.72,8.38,4,9.21a119.91,119.91,0,0,0,15,.88C23.34,72.33,26.87,72.08,27.68,71.4Zm-1.55-.93Zm191.6-2.65a1.45,1.45,0,0,0,.48-1c0-.14.1-.44.21-.89a62.51,62.51,0,0,0,1.27-24.83,6,6,0,0,0-5.54-5.49l-7.09-1.84L206,23a1.11,1.11,0,0,0-.15-.43l-2.08-3.27a1,1,0,0,0-.9-.46,1,1,0,0,0-.84.55l-2.27,4.55a1,1,0,0,0-.11.45v8.7a1,1,0,0,0,.75,1l5.26,1.37a1.07,1.07,0,0,0,.58.15l7.51,1.94.11,0a4,4,0,0,1,3.9,3.81,60.53,60.53,0,0,1-1.23,24.05c-.13.54-.21.84-.24,1.06-.53.32-3,1.05-14.33.83h0a1,1,0,0,0,0,2c1.5,0,2.86,0,4.08,0C214.84,69.34,216.92,68.62,217.73,67.82ZM201.6,24.62,203,21.86l1,1.57,1,9.76-3.39-.88Z"/><path id="No-Image" class="cls-3" d="M81.64,105.38v14.38h-1.2a1,1,0,0,1-.47-.1,1.24,1.24,0,0,1-.36-.31l-8-10.15c0,.2,0,.39.05.58s0,.36,0,.52v9.46H69.61V105.38h1.23l.26,0a.56.56,0,0,1,.37.17l.17.2,8,10.15c0-.2,0-.41,0-.61s0-.38,0-.56v-9.37Zm7.19,4a5.69,5.69,0,0,1,2.07.37,4.51,4.51,0,0,1,1.57,1,4.59,4.59,0,0,1,1,1.65,6.93,6.93,0,0,1,0,4.35,4.59,4.59,0,0,1-1,1.65,4.4,4.4,0,0,1-1.57,1.06,6,6,0,0,1-4.14,0,4.44,4.44,0,0,1-1.58-1.06,4.59,4.59,0,0,1-1-1.65,6.93,6.93,0,0,1,0-4.35,4.44,4.44,0,0,1,2.59-2.7A5.69,5.69,0,0,1,88.83,109.41Zm0,8.82a2.44,2.44,0,0,0,2.08-.92,4.44,4.44,0,0,0,.68-2.64,4.51,4.51,0,0,0-.68-2.66,2.8,2.8,0,0,0-4.17,0,4.43,4.43,0,0,0-.69,2.66,4.37,4.37,0,0,0,.69,2.64A2.43,2.43,0,0,0,88.83,118.23Zm14.88,1.53h-2.37V105.38h2.37Zm2.89,0V109.57h1.31a.54.54,0,0,1,.57.41l.14.89a5.37,5.37,0,0,1,.59-.58,3.32,3.32,0,0,1,.65-.46,3.73,3.73,0,0,1,.74-.31,3.45,3.45,0,0,1,.87-.11,2.83,2.83,0,0,1,.9.14,2.63,2.63,0,0,1,.74.4,3,3,0,0,1,.55.63,4,4,0,0,1,.38.83,3.22,3.22,0,0,1,.58-.91,3.33,3.33,0,0,1,.79-.62,3.8,3.8,0,0,1,.92-.35,4.21,4.21,0,0,1,1-.12,4.07,4.07,0,0,1,1.48.26,3.06,3.06,0,0,1,1.1.76,3.32,3.32,0,0,1,.68,1.21,5.51,5.51,0,0,1,.23,1.64v6.48h-2.17v-6.48a2.43,2.43,0,0,0-.47-1.62,1.7,1.7,0,0,0-1.39-.55,2.19,2.19,0,0,0-.77.14,1.72,1.72,0,0,0-.64.41,2,2,0,0,0-.43.67,2.75,2.75,0,0,0-.15,1v6.48h-2.17v-6.48a2.45,2.45,0,0,0-.46-1.64,1.65,1.65,0,0,0-1.33-.53,2.1,2.1,0,0,0-1.12.31,3.66,3.66,0,0,0-1,.83v7.51Zm22.26-4.46a13.83,13.83,0,0,0-2,.19,5.78,5.78,0,0,0-1.29.37,1.78,1.78,0,0,0-.71.53,1.2,1.2,0,0,0-.22.68,1.46,1.46,0,0,0,.12.62,1.17,1.17,0,0,0,.32.41,1.32,1.32,0,0,0,.49.24,2.31,2.31,0,0,0,.61.08,3.18,3.18,0,0,0,1.46-.32,4.57,4.57,0,0,0,1.18-.91ZM123.11,111a5.93,5.93,0,0,1,4.16-1.61,4.16,4.16,0,0,1,1.58.29,3.3,3.3,0,0,1,1.16.8,3.53,3.53,0,0,1,.71,1.24,4.64,4.64,0,0,1,.25,1.58v6.47h-1a.84.84,0,0,1-.47-.1.74.74,0,0,1-.28-.38l-.21-.83c-.26.23-.52.44-.77.62a4.65,4.65,0,0,1-.8.47,4,4,0,0,1-.87.28,5.56,5.56,0,0,1-1,.1,3.92,3.92,0,0,1-1.16-.17,2.68,2.68,0,0,1-.94-.52,2.43,2.43,0,0,1-.62-.85,3,3,0,0,1-.22-1.2,2.34,2.34,0,0,1,.31-1.15,2.9,2.9,0,0,1,1-1,6.66,6.66,0,0,1,1.93-.73,13.29,13.29,0,0,1,3-.33v-.68a2.47,2.47,0,0,0-.47-1.64,1.77,1.77,0,0,0-1.4-.54,3,3,0,0,0-1,.16,4.54,4.54,0,0,0-.73.33l-.56.33a.88.88,0,0,1-.51.16.6.6,0,0,1-.38-.12,1,1,0,0,1-.26-.28Zm14.06,3.59a2.05,2.05,0,0,0,1.52-.51,1.84,1.84,0,0,0,.5-1.33,1.8,1.8,0,0,0-.5-1.33,2.57,2.57,0,0,0-3,0,1.76,1.76,0,0,0-.51,1.33,2,2,0,0,0,.13.74,1.62,1.62,0,0,0,.38.58,1.8,1.8,0,0,0,.63.38A2.6,2.6,0,0,0,137.17,114.58Zm3,5.68a.77.77,0,0,0-.19-.55,1.53,1.53,0,0,0-.53-.32,5,5,0,0,0-.78-.17l-.95-.08-1,0c-.35,0-.69,0-1-.09a2.54,2.54,0,0,0-.79.6,1.16,1.16,0,0,0-.31.81,1,1,0,0,0,.16.55,1.17,1.17,0,0,0,.48.45,2.74,2.74,0,0,0,.84.3,5.5,5.5,0,0,0,1.23.11,4.13,4.13,0,0,0,2.15-.44A1.29,1.29,0,0,0,140.19,120.26Zm2.18-10.32v.8c0,.27-.16.43-.48.49l-1,.17a3.2,3.2,0,0,1,.26,1.29,3,3,0,0,1-1.12,2.39,3.64,3.64,0,0,1-1.25.66,5,5,0,0,1-1.58.23q-.31,0-.63,0l-.6-.1a1.63,1.63,0,0,0-.43.36.69.69,0,0,0-.14.39.53.53,0,0,0,.29.49,2.34,2.34,0,0,0,.77.23,8.58,8.58,0,0,0,1.1.09c.41,0,.83,0,1.25.07a10.43,10.43,0,0,1,1.25.17,3.65,3.65,0,0,1,1.1.37,2.31,2.31,0,0,1,.77.72,2.16,2.16,0,0,1,.29,1.17,2.71,2.71,0,0,1-.33,1.28,3.54,3.54,0,0,1-1,1.12,5,5,0,0,1-1.54.79,6.83,6.83,0,0,1-2.06.29,8,8,0,0,1-2-.22,4.78,4.78,0,0,1-1.42-.59,2.6,2.6,0,0,1-.85-.87,2,2,0,0,1-.27-1,1.79,1.79,0,0,1,.45-1.23,3.1,3.1,0,0,1,1.25-.8,1.76,1.76,0,0,1-.68-.55,1.52,1.52,0,0,1-.26-.92,1.64,1.64,0,0,1,.34-.94,2.67,2.67,0,0,1,1-.83,3.32,3.32,0,0,1-1.21-1.11,3,3,0,0,1-.44-1.62,3.06,3.06,0,0,1,.3-1.37,3,3,0,0,1,.83-1,4.13,4.13,0,0,1,1.27-.66,5.36,5.36,0,0,1,1.59-.23,4.8,4.8,0,0,1,2.33.55Zm8.3,3.58a3.29,3.29,0,0,0-.16-1,2.33,2.33,0,0,0-.46-.8,2.07,2.07,0,0,0-.75-.54,2.61,2.61,0,0,0-1-.2,2.5,2.5,0,0,0-1.85.67,3.24,3.24,0,0,0-.86,1.88Zm-5.18,1.31a5.43,5.43,0,0,0,.27,1.51,3.17,3.17,0,0,0,.62,1,2.34,2.34,0,0,0,.93.62,3.3,3.3,0,0,0,1.21.21,3.61,3.61,0,0,0,1.1-.15,4.3,4.3,0,0,0,.8-.32c.23-.11.43-.22.59-.31a.86.86,0,0,1,.44-.15.48.48,0,0,1,.41.2l.61.79a3.72,3.72,0,0,1-.87.76,5.17,5.17,0,0,1-1,.5,5.92,5.92,0,0,1-1.12.28,7.14,7.14,0,0,1-1.12.09,5.36,5.36,0,0,1-2-.36,4.23,4.23,0,0,1-1.58-1,4.75,4.75,0,0,1-1.05-1.71,6.75,6.75,0,0,1-.38-2.34,5.57,5.57,0,0,1,.34-2,4.64,4.64,0,0,1,1-1.6,4.54,4.54,0,0,1,1.53-1.07,5.08,5.08,0,0,1,2-.4,5,5,0,0,1,1.76.31,3.81,3.81,0,0,1,1.39.89,4,4,0,0,1,.91,1.44,5.39,5.39,0,0,1,.33,2,1.32,1.32,0,0,1-.11.67.44.44,0,0,1-.4.16Z"/></g></g></svg>